<svg xmlns="http://www.w3.org/2000/svg" viewBox="0 0 24 24" fill="none">
  <defs>
    <linearGradient id="dg" x1="0%" y1="0%" x2="100%" y2="100%">
      <stop offset="0%" stop-color="#0a1628"/>
      <stop offset="100%" stop-color="#1a3560"/>
    </linearGradient>
    <linearGradient id="bg" x1="0%" y1="0%" x2="100%" y2="100%">
      <stop offset="0%" stop-color="#1a6fd4"/>
      <stop offset="100%" stop-color="#42a5ff"/>
    </linearGradient>
  </defs>
  <!-- O -->
  <path d="M8.5 4C5.5 4 3.5 7 3.5 12C3.5 17 5.5 20 8.5 20C11.5 20 13.5 17 13.5 12C13.5 7 11.5 4 8.5 4ZM8.5 7C10.2 7 11.2 9 11.2 12C11.2 15 10.2 17 8.5 17C6.8 17 5.8 15 5.8 12C5.8 9 6.8 7 8.5 7Z" fill="url(#dg)" fill-rule="evenodd"/>
  <!-- K -->
  <path d="M13 4.5V19.5H15.5V13L19.5 19.5H22.5L17.5 12.2L22 4.5H19L15.5 11.5V4.5Z" fill="url(#bg)"/>
</svg>
