<svg role="img" viewBox="0 0 24 24" xmlns="http://www.w3.org/2000/svg"><title>Microsoft Teams</title><path d="M20.625 10.4c.8 0 1.44-.64 1.44-1.44 0-.79-.64-1.44-1.44-1.44-.79 0-1.44.65-1.44 1.44 0 .8.65 1.44 1.44 1.44zm-4.77-2.88c1.2 0 2.17-.97 2.17-2.16 0-1.2-.97-2.17-2.17-2.17s-2.16.97-2.16 2.17c0 1.19.96 2.16 2.16 2.16zM22.07 11H17.6a.72.72 0 0 0-.72.72v4.47c0 2.1-1.17 3.92-2.89 4.86a.4.4 0 0 0 .18.76h4.66c1.72 0 3.12-1.4 3.12-3.12V11.6a.6.6 0 0 0-.6-.6h.72zM9.6 12.8h5.52c.38 0 .68-.31.68-.68V8.08a3.36 3.36 0 0 0-3.36-3.36H7.2a3.36 3.36 0 0 0-3.36 3.36v7.6c0 2.86 2.32 5.17 5.17 5.17a5.17 5.17 0 0 0 4.3-2.3.48.48 0 0 0-.4-.75H9.6a2.16 2.16 0 0 1-2.16-2.16v-1.08c0-1.19.97-2.16 2.16-2.16z"/></svg>
