<svg xmlns="http://www.w3.org/2000/svg" viewBox="0 0 240 200" fill="none">
  <!-- Bell body -->
  <path d="M120 35 C90 35 70 60 70 95 L70 125 L60 140 L180 140 L170 125 L170 95 C170 60 150 35 120 35Z" fill="#37474f"/>
  <path d="M120 35 C100 35 82 55 80 85 L160 85 C158 55 140 35 120 35Z" fill="#546e7a"/>
  <!-- Bell bottom ring -->
  <ellipse cx="120" cy="140" rx="60" ry="6" fill="#263238"/>
  <!-- Clapper -->
  <circle cx="120" cy="152" r="10" fill="#37474f"/>
  <!-- Alert badge -->
  <circle cx="158" cy="50" r="22" fill="#4caf50"/>
  <circle cx="158" cy="50" r="18" fill="#fff"/>
  <text x="158" y="56" text-anchor="middle" font-family="Arial,sans-serif" font-size="18" font-weight="bold" fill="#4caf50">!</text>
  <!-- Sound waves -->
  <path d="M55 90 Q45 85 50 75" stroke="#c8e6c9" stroke-width="3" stroke-linecap="round" fill="none"/>
  <path d="M45 100 Q32 92 40 78" stroke="#e8f5e9" stroke-width="2" stroke-linecap="round" fill="none"/>
  <path d="M185 90 Q195 85 190 75" stroke="#c8e6c9" stroke-width="3" stroke-linecap="round" fill="none"/>
  <path d="M195 100 Q208 92 200 78" stroke="#e8f5e9" stroke-width="2" stroke-linecap="round" fill="none"/>
  <!-- Small stars -->
  <circle cx="60" cy="50" r="3" fill="#e8f5e9"/>
  <circle cx="195" cy="45" r="2" fill="#c8e6c9"/>
</svg>
