<svg xmlns="http://www.w3.org/2000/svg" viewBox="0 0 240 200" fill="none">
  <!-- Document -->
  <rect x="60" y="30" width="120" height="150" rx="12" fill="#fff" stroke="#c8e6c9" stroke-width="2"/>
  <rect x="80" y="70" width="80" height="5" rx="2.5" fill="#e8f5e9"/>
  <rect x="80" y="85" width="60" height="4" rx="2" fill="#f1f8e9"/>
  <rect x="80" y="100" width="70" height="4" rx="2" fill="#e8f5e9"/>
  <rect x="80" y="115" width="50" height="4" rx="2" fill="#f1f8e9"/>
  <!-- Big checkmark circle -->
  <circle cx="160" cy="50" r="32" fill="#4caf50"/>
  <circle cx="160" cy="50" r="27" fill="#fff"/>
  <path d="M146 50 L156 60 L175 42" stroke="#4caf50" stroke-width="5" stroke-linecap="round" stroke-linejoin="round" fill="none"/>
  <!-- Confetti -->
  <rect x="45" y="55" width="8" height="3" rx="1.5" fill="#4caf50" transform="rotate(-20 49 56)"/>
  <rect x="190" y="80" width="8" height="3" rx="1.5" fill="#ff9800" transform="rotate(15 194 81)"/>
  <circle cx="50" cy="90" r="3" fill="#c8e6c9"/>
  <circle cx="195" cy="45" r="4" fill="#e8f5e9"/>
  <rect x="185" y="110" width="6" height="3" rx="1.5" fill="#a5d6a7" transform="rotate(-10 188 111)"/>
  <circle cx="55" cy="130" r="2" fill="#a5d6a7"/>
</svg>
