<svg xmlns="http://www.w3.org/2000/svg" viewBox="0 0 240 200" fill="none">
  <!-- Shield -->
  <path d="M120 30 L170 55 L170 110 C170 145 120 175 120 175 C120 175 70 145 70 110 L70 55 Z" fill="#37474f"/>
  <path d="M120 40 L162 62 L162 108 C162 138 120 165 120 165 C120 165 78 138 78 108 L78 62 Z" fill="#546e7a"/>
  <!-- Inner shield -->
  <path d="M120 52 L152 70 L152 105 C152 130 120 152 120 152 C120 152 88 130 88 105 L88 70 Z" fill="#fff"/>
  <!-- Warning triangle -->
  <path d="M120 78 L140 118 L100 118 Z" fill="#ff9800" stroke="#e65100" stroke-width="1.5" stroke-linejoin="round"/>
  <text x="120" y="113" text-anchor="middle" font-family="Arial,sans-serif" font-size="18" font-weight="bold" fill="#fff">!</text>
  <!-- Lock -->
  <rect x="112" y="130" width="16" height="14" rx="3" fill="#f44336"/>
  <path d="M115 130 L115 124 C115 120 120 117 125 120 L125 130" stroke="#f44336" stroke-width="2.5" fill="none" stroke-linecap="round"/>
  <circle cx="120" cy="137" r="2" fill="#fff"/>
  <!-- Accents -->
  <circle cx="55" cy="60" r="3" fill="#ffcdd2"/>
  <circle cx="190" cy="70" r="4" fill="#ffebee"/>
  <circle cx="50" cy="130" r="2" fill="#ef9a9a"/>
</svg>
