<svg xmlns="http://www.w3.org/2000/svg" viewBox="0 0 160 140" fill="none">
  <!-- Card stack -->
  <rect x="32" y="35" width="96" height="65" rx="10" fill="#e8f5e9" stroke="#c8e6c9" stroke-width="1.5"/>
  <rect x="26" y="28" width="96" height="65" rx="10" fill="#f1f8e9" stroke="#c8e6c9" stroke-width="1.5"/>
  <!-- Main card -->
  <rect x="20" y="20" width="96" height="65" rx="10" fill="#fff" stroke="#c8e6c9" stroke-width="2"/>
  <rect x="35" y="35" width="50" height="5" rx="2.5" fill="#37474f"/>
  <rect x="35" y="48" width="65" height="4" rx="2" fill="#e8f5e9"/>
  <rect x="35" y="58" width="40" height="4" rx="2" fill="#e8f5e9"/>
  <!-- Approve button -->
  <rect x="35" y="68" width="32" height="10" rx="5" fill="#4caf50"/>
  <text x="51" y="76" text-anchor="middle" font-family="Arial,sans-serif" font-size="6" font-weight="bold" fill="#fff">APPROVE</text>
  <!-- Thumbs up -->
  <circle cx="130" cy="85" r="22" fill="#e8f5e9" stroke="#c8e6c9" stroke-width="2"/>
  <!-- Hand -->
  <path d="M122 90 L122 80 C122 77 125 75 128 75 L130 75 C133 75 135 77 135 80 L135 82 L137 82 C139 82 140 84 140 86 L138 93 C137 95 135 96 133 96 L125 96 C123 96 122 94 122 92 Z" fill="#4caf50"/>
  <rect x="120" y="92" width="8" height="8" rx="2" fill="#388e3c"/>
</svg>
