<svg xmlns="http://www.w3.org/2000/svg" viewBox="0 0 240 180" fill="none">
  <!-- Clipboard -->
  <rect x="55" y="30" width="130" height="140" rx="12" fill="#fff" stroke="#c8e6c9" stroke-width="2"/>
  <!-- Clipboard clip -->
  <rect x="95" y="22" width="50" height="20" rx="6" fill="#37474f"/>
  <rect x="105" y="26" width="30" height="12" rx="4" fill="#546e7a"/>
  <!-- Chart area -->
  <rect x="75" y="60" width="90" height="50" rx="6" fill="#e8f5e9"/>
  <!-- Mini bar chart -->
  <rect x="85" y="85" width="12" height="18" rx="2" fill="#4caf50"/>
  <rect x="103" y="75" width="12" height="28" rx="2" fill="#388e3c"/>
  <rect x="121" y="80" width="12" height="23" rx="2" fill="#4caf50"/>
  <rect x="139" y="88" width="12" height="15" rx="2" fill="#66bb6a"/>
  <!-- Trend line -->
  <path d="M91 80 L109 70 L127 74 L145 82" stroke="#2e7d32" stroke-width="2" stroke-linecap="round" fill="none"/>
  <!-- List lines -->
  <rect x="75" y="120" width="60" height="4" rx="2" fill="#e8f5e9"/>
  <rect x="75" y="130" width="45" height="4" rx="2" fill="#f1f8e9"/>
  <rect x="75" y="140" width="50" height="4" rx="2" fill="#e8f5e9"/>
  <!-- Checkmarks -->
  <circle cx="155" cy="122" r="6" fill="#4caf50"/>
  <path d="M152 122 L154 124 L159 119" stroke="#fff" stroke-width="1.5" stroke-linecap="round" stroke-linejoin="round" fill="none"/>
  <circle cx="155" cy="137" r="6" fill="#4caf50"/>
  <path d="M152 137 L154 139 L159 134" stroke="#fff" stroke-width="1.5" stroke-linecap="round" stroke-linejoin="round" fill="none"/>
</svg>
